<mxfile host="app.diagrams.net" modified="2023-05-21T09:36:59.800Z" agent="Mozilla/5.0 (Windows NT 10.0; Win64; x64) AppleWebKit/537.36 (KHTML, like Gecko) Chrome/115.0.0.0 Safari/537.36 Edg/115.0.0.0" version="21.3.2" etag="O-aeOhc2xQS1UC000S2r" type="github">
  <diagram name="第 1 页" id="Wzm5gtQ0w-wNAZiW5i13">
    <mxGraphModel>
      <root>
        <mxCell id="0" />
        <mxCell id="1" parent="0" />
      </root>
    </mxGraphModel>
  </diagram>
</mxfile>
